<mxfile host="app.diagrams.net" modified="2023-04-09T05:43:16.630Z" agent="Mozilla/5.0 (Windows NT 10.0; Win64; x64) AppleWebKit/537.36 (KHTML, like Gecko) Chrome/111.0.0.0 Safari/537.36" etag="cng05-Y34vnoEj71_8Os" version="21.1.5" type="google">
  <diagram name="Page-1" id="65udgw6rEecLWeZ219-R">
    <mxGraphModel grid="1" page="1" gridSize="10" guides="1" tooltips="1" connect="1" arrows="1" fold="1" pageScale="1" pageWidth="850" pageHeight="1100" math="0" shadow="0">
      <root>
        <mxCell id="0" />
        <mxCell id="1" parent="0" />
        <mxCell id="_JVXg2aQJ4vH08_t1q8Y-108" style="edgeStyle=orthogonalEdgeStyle;rounded=0;orthogonalLoop=1;jettySize=auto;html=1;" edge="1" parent="1" source="_JVXg2aQJ4vH08_t1q8Y-101" target="_JVXg2aQJ4vH08_t1q8Y-102">
          <mxGeometry relative="1" as="geometry" />
        </mxCell>
        <mxCell id="_JVXg2aQJ4vH08_t1q8Y-101" value="Room open" style="rounded=1;whiteSpace=wrap;html=1;" vertex="1" parent="1">
          <mxGeometry x="-730" y="90" width="120" height="60" as="geometry" />
        </mxCell>
        <mxCell id="_JVXg2aQJ4vH08_t1q8Y-149" style="edgeStyle=orthogonalEdgeStyle;rounded=0;orthogonalLoop=1;jettySize=auto;html=1;" edge="1" parent="1" source="_JVXg2aQJ4vH08_t1q8Y-102" target="_JVXg2aQJ4vH08_t1q8Y-148">
          <mxGeometry relative="1" as="geometry">
            <mxPoint x="-400" y="100" as="targetPoint" />
          </mxGeometry>
        </mxCell>
        <mxCell id="_JVXg2aQJ4vH08_t1q8Y-102" value="choose player avatars &amp;amp; wait for join" style="rounded=1;whiteSpace=wrap;html=1;" vertex="1" parent="1">
          <mxGeometry x="-580" y="90" width="160" height="60" as="geometry" />
        </mxCell>
        <mxCell id="_JVXg2aQJ4vH08_t1q8Y-106" style="edgeStyle=orthogonalEdgeStyle;rounded=0;orthogonalLoop=1;jettySize=auto;html=1;entryX=-0.002;entryY=0.666;entryDx=0;entryDy=0;entryPerimeter=0;" edge="1" parent="1" source="_JVXg2aQJ4vH08_t1q8Y-104" target="Ia9hA7gtk5hcU-X4NPmu-11">
          <mxGeometry relative="1" as="geometry">
            <Array as="points">
              <mxPoint x="130" y="890" />
            </Array>
            <mxPoint x="390" y="870" as="targetPoint" />
          </mxGeometry>
        </mxCell>
        <mxCell id="_JVXg2aQJ4vH08_t1q8Y-107" value="If skip turn" style="edgeLabel;html=1;align=center;verticalAlign=middle;resizable=0;points=[];" vertex="1" connectable="0" parent="_JVXg2aQJ4vH08_t1q8Y-106">
          <mxGeometry x="-0.4229" y="-5" relative="1" as="geometry">
            <mxPoint x="-26" y="-20" as="offset" />
          </mxGeometry>
        </mxCell>
        <mxCell id="Ia9hA7gtk5hcU-X4NPmu-12" style="edgeStyle=orthogonalEdgeStyle;rounded=0;orthogonalLoop=1;jettySize=auto;html=1;entryX=1;entryY=0.5;entryDx=0;entryDy=0;" edge="1" parent="1" source="_JVXg2aQJ4vH08_t1q8Y-104" target="Ia9hA7gtk5hcU-X4NPmu-1">
          <mxGeometry relative="1" as="geometry" />
        </mxCell>
        <mxCell id="_JVXg2aQJ4vH08_t1q8Y-104" value="apply penalty effect" style="rounded=1;whiteSpace=wrap;html=1;" vertex="1" parent="1">
          <mxGeometry x="30" y="755" width="160" height="100" as="geometry" />
        </mxCell>
        <mxCell id="_JVXg2aQJ4vH08_t1q8Y-157" style="edgeStyle=orthogonalEdgeStyle;rounded=0;orthogonalLoop=1;jettySize=auto;html=1;" edge="1" parent="1" source="_JVXg2aQJ4vH08_t1q8Y-148" target="_JVXg2aQJ4vH08_t1q8Y-156">
          <mxGeometry relative="1" as="geometry" />
        </mxCell>
        <mxCell id="_JVXg2aQJ4vH08_t1q8Y-148" value="Roll Orders" style="swimlane;startSize=0;labelBackgroundColor=default;" vertex="1" parent="1">
          <mxGeometry x="-387.5" y="10" width="265" height="220" as="geometry">
            <mxRectangle x="-555" y="-310" width="50" height="40" as="alternateBounds" />
          </mxGeometry>
        </mxCell>
        <mxCell id="_JVXg2aQJ4vH08_t1q8Y-111" value="Roll orders" style="rounded=1;whiteSpace=wrap;html=1;" vertex="1" parent="_JVXg2aQJ4vH08_t1q8Y-148">
          <mxGeometry x="20" y="20" width="120" height="45" as="geometry" />
        </mxCell>
        <mxCell id="_JVXg2aQJ4vH08_t1q8Y-112" value="wait for each player to roll a dice&lt;br&gt;(Rolled players cannot grab dice)" style="rounded=1;whiteSpace=wrap;html=1;" vertex="1" parent="_JVXg2aQJ4vH08_t1q8Y-148">
          <mxGeometry x="20" y="80" width="120" height="60" as="geometry" />
        </mxCell>
        <mxCell id="_JVXg2aQJ4vH08_t1q8Y-113" style="edgeStyle=orthogonalEdgeStyle;rounded=0;orthogonalLoop=1;jettySize=auto;html=1;" edge="1" parent="_JVXg2aQJ4vH08_t1q8Y-148" source="_JVXg2aQJ4vH08_t1q8Y-111" target="_JVXg2aQJ4vH08_t1q8Y-112">
          <mxGeometry relative="1" as="geometry" />
        </mxCell>
        <mxCell id="_JVXg2aQJ4vH08_t1q8Y-118" value="Display rolled numbers at top of player" style="text;html=1;strokeColor=none;fillColor=none;align=center;verticalAlign=middle;whiteSpace=wrap;rounded=0;" vertex="1" parent="_JVXg2aQJ4vH08_t1q8Y-148">
          <mxGeometry x="150" y="95" width="110" height="30" as="geometry" />
        </mxCell>
        <mxCell id="_JVXg2aQJ4vH08_t1q8Y-120" value="complete" style="rounded=1;whiteSpace=wrap;html=1;" vertex="1" parent="_JVXg2aQJ4vH08_t1q8Y-148">
          <mxGeometry x="20" y="170" width="120" height="35" as="geometry" />
        </mxCell>
        <mxCell id="_JVXg2aQJ4vH08_t1q8Y-121" style="edgeStyle=orthogonalEdgeStyle;rounded=0;orthogonalLoop=1;jettySize=auto;html=1;" edge="1" parent="_JVXg2aQJ4vH08_t1q8Y-148" source="_JVXg2aQJ4vH08_t1q8Y-112" target="_JVXg2aQJ4vH08_t1q8Y-120">
          <mxGeometry relative="1" as="geometry" />
        </mxCell>
        <mxCell id="Ia9hA7gtk5hcU-X4NPmu-6" style="edgeStyle=orthogonalEdgeStyle;rounded=0;orthogonalLoop=1;jettySize=auto;html=1;" edge="1" parent="1" source="_JVXg2aQJ4vH08_t1q8Y-156" target="Ia9hA7gtk5hcU-X4NPmu-1">
          <mxGeometry relative="1" as="geometry" />
        </mxCell>
        <mxCell id="_JVXg2aQJ4vH08_t1q8Y-156" value="Player Actions" style="swimlane;startSize=0;labelBackgroundColor=default;" vertex="1" parent="1">
          <mxGeometry x="-430" y="250" width="350" height="260" as="geometry" />
        </mxCell>
        <mxCell id="_JVXg2aQJ4vH08_t1q8Y-11" value="Wait for player action" style="rounded=1;whiteSpace=wrap;html=1;" vertex="1" parent="_JVXg2aQJ4vH08_t1q8Y-156">
          <mxGeometry x="60" y="20" width="120" height="50" as="geometry" />
        </mxCell>
        <mxCell id="_JVXg2aQJ4vH08_t1q8Y-12" value="Throw dice" style="rounded=1;whiteSpace=wrap;html=1;" vertex="1" parent="_JVXg2aQJ4vH08_t1q8Y-156">
          <mxGeometry x="20" y="122.5" width="100" height="45" as="geometry" />
        </mxCell>
        <mxCell id="_JVXg2aQJ4vH08_t1q8Y-39" style="edgeStyle=orthogonalEdgeStyle;rounded=0;orthogonalLoop=1;jettySize=auto;html=1;" edge="1" parent="_JVXg2aQJ4vH08_t1q8Y-156" source="_JVXg2aQJ4vH08_t1q8Y-11" target="_JVXg2aQJ4vH08_t1q8Y-12">
          <mxGeometry relative="1" as="geometry" />
        </mxCell>
        <mxCell id="_JVXg2aQJ4vH08_t1q8Y-150" style="edgeStyle=orthogonalEdgeStyle;rounded=0;orthogonalLoop=1;jettySize=auto;html=1;entryX=1;entryY=0.5;entryDx=0;entryDy=0;" edge="1" parent="_JVXg2aQJ4vH08_t1q8Y-156" source="_JVXg2aQJ4vH08_t1q8Y-153" target="_JVXg2aQJ4vH08_t1q8Y-11">
          <mxGeometry relative="1" as="geometry">
            <Array as="points" />
          </mxGeometry>
        </mxCell>
        <mxCell id="_JVXg2aQJ4vH08_t1q8Y-13" value="Thrown cards" style="rounded=1;whiteSpace=wrap;html=1;" vertex="1" parent="_JVXg2aQJ4vH08_t1q8Y-156">
          <mxGeometry x="140" y="122.5" width="100" height="45" as="geometry" />
        </mxCell>
        <mxCell id="_JVXg2aQJ4vH08_t1q8Y-40" style="edgeStyle=orthogonalEdgeStyle;rounded=0;orthogonalLoop=1;jettySize=auto;html=1;" edge="1" parent="_JVXg2aQJ4vH08_t1q8Y-156" source="_JVXg2aQJ4vH08_t1q8Y-11" target="_JVXg2aQJ4vH08_t1q8Y-13">
          <mxGeometry relative="1" as="geometry" />
        </mxCell>
        <mxCell id="_JVXg2aQJ4vH08_t1q8Y-15" value="Terminate dice rolls" style="text;html=1;strokeColor=none;fillColor=none;align=center;verticalAlign=middle;whiteSpace=wrap;rounded=0;" vertex="1" parent="_JVXg2aQJ4vH08_t1q8Y-156">
          <mxGeometry x="200" y="85" width="60" height="30" as="geometry" />
        </mxCell>
        <mxCell id="_JVXg2aQJ4vH08_t1q8Y-17" value="Lock throw cards" style="text;html=1;strokeColor=none;fillColor=none;align=center;verticalAlign=middle;whiteSpace=wrap;rounded=0;" vertex="1" parent="_JVXg2aQJ4vH08_t1q8Y-156">
          <mxGeometry x="10" y="85" width="60" height="30" as="geometry" />
        </mxCell>
        <mxCell id="_JVXg2aQJ4vH08_t1q8Y-48" value="next" style="rounded=1;whiteSpace=wrap;html=1;" vertex="1" parent="_JVXg2aQJ4vH08_t1q8Y-156">
          <mxGeometry x="85" y="200" width="70" height="50" as="geometry" />
        </mxCell>
        <mxCell id="_JVXg2aQJ4vH08_t1q8Y-49" style="edgeStyle=orthogonalEdgeStyle;rounded=0;orthogonalLoop=1;jettySize=auto;html=1;" edge="1" parent="_JVXg2aQJ4vH08_t1q8Y-156" source="_JVXg2aQJ4vH08_t1q8Y-12" target="_JVXg2aQJ4vH08_t1q8Y-48">
          <mxGeometry relative="1" as="geometry" />
        </mxCell>
        <mxCell id="_JVXg2aQJ4vH08_t1q8Y-50" style="edgeStyle=orthogonalEdgeStyle;rounded=0;orthogonalLoop=1;jettySize=auto;html=1;" edge="1" parent="_JVXg2aQJ4vH08_t1q8Y-156" source="_JVXg2aQJ4vH08_t1q8Y-13" target="_JVXg2aQJ4vH08_t1q8Y-48">
          <mxGeometry relative="1" as="geometry" />
        </mxCell>
        <mxCell id="_JVXg2aQJ4vH08_t1q8Y-153" value="Play card effects" style="rounded=1;whiteSpace=wrap;html=1;" vertex="1" parent="_JVXg2aQJ4vH08_t1q8Y-156">
          <mxGeometry x="220" y="20" width="120" height="50" as="geometry" />
        </mxCell>
        <mxCell id="_JVXg2aQJ4vH08_t1q8Y-154" style="edgeStyle=orthogonalEdgeStyle;rounded=0;orthogonalLoop=1;jettySize=auto;html=1;entryX=0.5;entryY=1;entryDx=0;entryDy=0;exitX=1;exitY=0.5;exitDx=0;exitDy=0;" edge="1" parent="_JVXg2aQJ4vH08_t1q8Y-156" source="_JVXg2aQJ4vH08_t1q8Y-13" target="_JVXg2aQJ4vH08_t1q8Y-153">
          <mxGeometry relative="1" as="geometry" />
        </mxCell>
        <mxCell id="Ia9hA7gtk5hcU-X4NPmu-13" style="edgeStyle=orthogonalEdgeStyle;rounded=0;orthogonalLoop=1;jettySize=auto;html=1;entryX=0;entryY=0.873;entryDx=0;entryDy=0;entryPerimeter=0;exitX=1.004;exitY=0.857;exitDx=0;exitDy=0;exitPerimeter=0;" edge="1" parent="1" source="Ia9hA7gtk5hcU-X4NPmu-1" target="Ia9hA7gtk5hcU-X4NPmu-11">
          <mxGeometry relative="1" as="geometry" />
        </mxCell>
        <mxCell id="Ia9hA7gtk5hcU-X4NPmu-1" value="Apply Turn Effects" style="swimlane;startSize=0;labelBackgroundColor=default;" vertex="1" parent="1">
          <mxGeometry x="-505" y="530" width="500" height="550" as="geometry">
            <mxRectangle x="970" y="930" width="150" height="30" as="alternateBounds" />
          </mxGeometry>
        </mxCell>
        <mxCell id="_JVXg2aQJ4vH08_t1q8Y-26" value="move" style="rounded=1;whiteSpace=wrap;html=1;" vertex="1" parent="Ia9hA7gtk5hcU-X4NPmu-1">
          <mxGeometry x="25" y="20" width="120" height="60" as="geometry" />
        </mxCell>
        <mxCell id="Ia9hA7gtk5hcU-X4NPmu-4" style="edgeStyle=orthogonalEdgeStyle;rounded=0;orthogonalLoop=1;jettySize=auto;html=1;entryX=-0.007;entryY=0.288;entryDx=0;entryDy=0;entryPerimeter=0;" edge="1" parent="Ia9hA7gtk5hcU-X4NPmu-1" source="_JVXg2aQJ4vH08_t1q8Y-27" target="_JVXg2aQJ4vH08_t1q8Y-160">
          <mxGeometry relative="1" as="geometry" />
        </mxCell>
        <mxCell id="_JVXg2aQJ4vH08_t1q8Y-27" value="scan for next tile action" style="rounded=1;whiteSpace=wrap;html=1;" vertex="1" parent="Ia9hA7gtk5hcU-X4NPmu-1">
          <mxGeometry x="25" y="100" width="120" height="60" as="geometry" />
        </mxCell>
        <mxCell id="_JVXg2aQJ4vH08_t1q8Y-28" style="edgeStyle=orthogonalEdgeStyle;rounded=0;orthogonalLoop=1;jettySize=auto;html=1;" edge="1" parent="Ia9hA7gtk5hcU-X4NPmu-1" source="_JVXg2aQJ4vH08_t1q8Y-26" target="_JVXg2aQJ4vH08_t1q8Y-27">
          <mxGeometry relative="1" as="geometry" />
        </mxCell>
        <mxCell id="_JVXg2aQJ4vH08_t1q8Y-33" style="edgeStyle=orthogonalEdgeStyle;rounded=0;orthogonalLoop=1;jettySize=auto;html=1;" edge="1" parent="Ia9hA7gtk5hcU-X4NPmu-1" source="_JVXg2aQJ4vH08_t1q8Y-31" target="_JVXg2aQJ4vH08_t1q8Y-27">
          <mxGeometry relative="1" as="geometry" />
        </mxCell>
        <mxCell id="_JVXg2aQJ4vH08_t1q8Y-35" value="cencelled / completed" style="edgeStyle=orthogonalEdgeStyle;rounded=0;orthogonalLoop=1;jettySize=auto;html=1;exitX=0.5;exitY=1;exitDx=0;exitDy=0;" edge="1" parent="Ia9hA7gtk5hcU-X4NPmu-1" source="_JVXg2aQJ4vH08_t1q8Y-31" target="_JVXg2aQJ4vH08_t1q8Y-57">
          <mxGeometry relative="1" as="geometry">
            <mxPoint x="205" y="276" as="sourcePoint" />
            <mxPoint x="395" y="355" as="targetPoint" />
            <Array as="points">
              <mxPoint x="85" y="290" />
              <mxPoint x="205" y="290" />
            </Array>
          </mxGeometry>
        </mxCell>
        <mxCell id="_JVXg2aQJ4vH08_t1q8Y-31" value="run tile trap action" style="rounded=1;whiteSpace=wrap;html=1;" vertex="1" parent="Ia9hA7gtk5hcU-X4NPmu-1">
          <mxGeometry x="25" y="205" width="120" height="60" as="geometry" />
        </mxCell>
        <mxCell id="_JVXg2aQJ4vH08_t1q8Y-55" style="edgeStyle=orthogonalEdgeStyle;rounded=0;orthogonalLoop=1;jettySize=auto;html=1;exitX=0.5;exitY=1;exitDx=0;exitDy=0;" edge="1" parent="Ia9hA7gtk5hcU-X4NPmu-1">
          <mxGeometry relative="1" as="geometry">
            <mxPoint x="135" y="415" as="sourcePoint" />
            <mxPoint x="135" y="415" as="targetPoint" />
          </mxGeometry>
        </mxCell>
        <mxCell id="_JVXg2aQJ4vH08_t1q8Y-57" value="Is turn cencelled?" style="rhombus;whiteSpace=wrap;html=1;" vertex="1" parent="Ia9hA7gtk5hcU-X4NPmu-1">
          <mxGeometry x="165" y="325" width="80" height="80" as="geometry" />
        </mxCell>
        <mxCell id="_JVXg2aQJ4vH08_t1q8Y-62" value="Tile buyable?" style="rhombus;whiteSpace=wrap;html=1;" vertex="1" parent="Ia9hA7gtk5hcU-X4NPmu-1">
          <mxGeometry x="35" y="405" width="80" height="80" as="geometry" />
        </mxCell>
        <mxCell id="_JVXg2aQJ4vH08_t1q8Y-59" style="edgeStyle=orthogonalEdgeStyle;rounded=0;orthogonalLoop=1;jettySize=auto;html=1;" edge="1" parent="Ia9hA7gtk5hcU-X4NPmu-1" source="_JVXg2aQJ4vH08_t1q8Y-57" target="_JVXg2aQJ4vH08_t1q8Y-62">
          <mxGeometry relative="1" as="geometry">
            <mxPoint x="125" y="365" as="targetPoint" />
            <Array as="points">
              <mxPoint x="75" y="365" />
            </Array>
          </mxGeometry>
        </mxCell>
        <mxCell id="_JVXg2aQJ4vH08_t1q8Y-60" value="No" style="edgeLabel;html=1;align=center;verticalAlign=middle;resizable=0;points=[];" vertex="1" connectable="0" parent="_JVXg2aQJ4vH08_t1q8Y-59">
          <mxGeometry x="-0.2421" y="1" relative="1" as="geometry">
            <mxPoint as="offset" />
          </mxGeometry>
        </mxCell>
        <mxCell id="_JVXg2aQJ4vH08_t1q8Y-63" value="Ask player to buy tile" style="rounded=1;whiteSpace=wrap;html=1;" vertex="1" parent="Ia9hA7gtk5hcU-X4NPmu-1">
          <mxGeometry x="145" y="417.5" width="120" height="55" as="geometry" />
        </mxCell>
        <mxCell id="_JVXg2aQJ4vH08_t1q8Y-64" value="Yes" style="edgeStyle=orthogonalEdgeStyle;rounded=0;orthogonalLoop=1;jettySize=auto;html=1;" edge="1" parent="Ia9hA7gtk5hcU-X4NPmu-1" source="_JVXg2aQJ4vH08_t1q8Y-62" target="_JVXg2aQJ4vH08_t1q8Y-63">
          <mxGeometry x="-0.3333" relative="1" as="geometry">
            <Array as="points">
              <mxPoint x="85" y="440" />
            </Array>
            <mxPoint x="-1" as="offset" />
          </mxGeometry>
        </mxCell>
        <mxCell id="_JVXg2aQJ4vH08_t1q8Y-65" value="Fines player / run tile effect" style="rounded=1;whiteSpace=wrap;html=1;" vertex="1" parent="Ia9hA7gtk5hcU-X4NPmu-1">
          <mxGeometry x="145" y="485" width="120" height="50" as="geometry" />
        </mxCell>
        <mxCell id="_JVXg2aQJ4vH08_t1q8Y-66" value="No" style="edgeStyle=orthogonalEdgeStyle;rounded=0;orthogonalLoop=1;jettySize=auto;html=1;" edge="1" parent="Ia9hA7gtk5hcU-X4NPmu-1" source="_JVXg2aQJ4vH08_t1q8Y-62" target="_JVXg2aQJ4vH08_t1q8Y-65">
          <mxGeometry relative="1" as="geometry">
            <Array as="points">
              <mxPoint x="75" y="515" />
            </Array>
          </mxGeometry>
        </mxCell>
        <mxCell id="_JVXg2aQJ4vH08_t1q8Y-67" value="complete" style="rounded=1;whiteSpace=wrap;html=1;" vertex="1" parent="Ia9hA7gtk5hcU-X4NPmu-1">
          <mxGeometry x="285" y="335" width="65" height="60" as="geometry" />
        </mxCell>
        <mxCell id="_JVXg2aQJ4vH08_t1q8Y-70" value="Yes" style="edgeStyle=orthogonalEdgeStyle;rounded=0;orthogonalLoop=1;jettySize=auto;html=1;" edge="1" parent="Ia9hA7gtk5hcU-X4NPmu-1" source="_JVXg2aQJ4vH08_t1q8Y-57" target="_JVXg2aQJ4vH08_t1q8Y-67">
          <mxGeometry relative="1" as="geometry">
            <Array as="points">
              <mxPoint x="325" y="365" />
            </Array>
            <mxPoint as="offset" />
          </mxGeometry>
        </mxCell>
        <mxCell id="_JVXg2aQJ4vH08_t1q8Y-69" style="edgeStyle=orthogonalEdgeStyle;rounded=0;orthogonalLoop=1;jettySize=auto;html=1;" edge="1" parent="Ia9hA7gtk5hcU-X4NPmu-1" source="_JVXg2aQJ4vH08_t1q8Y-63" target="_JVXg2aQJ4vH08_t1q8Y-67">
          <mxGeometry relative="1" as="geometry" />
        </mxCell>
        <mxCell id="_JVXg2aQJ4vH08_t1q8Y-68" style="edgeStyle=orthogonalEdgeStyle;rounded=0;orthogonalLoop=1;jettySize=auto;html=1;" edge="1" parent="Ia9hA7gtk5hcU-X4NPmu-1" source="_JVXg2aQJ4vH08_t1q8Y-65" target="_JVXg2aQJ4vH08_t1q8Y-67">
          <mxGeometry relative="1" as="geometry" />
        </mxCell>
        <mxCell id="Ia9hA7gtk5hcU-X4NPmu-5" style="edgeStyle=orthogonalEdgeStyle;rounded=0;orthogonalLoop=1;jettySize=auto;html=1;entryX=1;entryY=0.5;entryDx=0;entryDy=0;" edge="1" parent="Ia9hA7gtk5hcU-X4NPmu-1" source="_JVXg2aQJ4vH08_t1q8Y-160" target="_JVXg2aQJ4vH08_t1q8Y-31">
          <mxGeometry relative="1" as="geometry">
            <Array as="points">
              <mxPoint x="200" y="235" />
              <mxPoint x="200" y="235" />
            </Array>
          </mxGeometry>
        </mxCell>
        <mxCell id="_JVXg2aQJ4vH08_t1q8Y-160" value="Move Animation" style="swimlane;startSize=0;labelBackgroundColor=default;" vertex="1" parent="Ia9hA7gtk5hcU-X4NPmu-1">
          <mxGeometry x="220" y="70" width="260" height="210" as="geometry">
            <mxRectangle x="370" y="40" width="130" height="65" as="alternateBounds" />
          </mxGeometry>
        </mxCell>
        <mxCell id="_JVXg2aQJ4vH08_t1q8Y-18" value="move effect" style="rounded=1;whiteSpace=wrap;html=1;" vertex="1" parent="_JVXg2aQJ4vH08_t1q8Y-160">
          <mxGeometry x="20" y="20" width="100" height="40" as="geometry" />
        </mxCell>
        <mxCell id="_JVXg2aQJ4vH08_t1q8Y-19" value="reassign pin" style="rounded=1;whiteSpace=wrap;html=1;" vertex="1" parent="_JVXg2aQJ4vH08_t1q8Y-160">
          <mxGeometry x="20" y="80" width="100" height="40" as="geometry" />
        </mxCell>
        <mxCell id="_JVXg2aQJ4vH08_t1q8Y-20" style="edgeStyle=orthogonalEdgeStyle;rounded=0;orthogonalLoop=1;jettySize=auto;html=1;" edge="1" parent="_JVXg2aQJ4vH08_t1q8Y-160" source="_JVXg2aQJ4vH08_t1q8Y-18" target="_JVXg2aQJ4vH08_t1q8Y-19">
          <mxGeometry relative="1" as="geometry" />
        </mxCell>
        <mxCell id="_JVXg2aQJ4vH08_t1q8Y-23" style="edgeStyle=orthogonalEdgeStyle;rounded=0;orthogonalLoop=1;jettySize=auto;html=1;entryX=0.85;entryY=-0.017;entryDx=0;entryDy=0;entryPerimeter=0;exitX=0;exitY=0.75;exitDx=0;exitDy=0;exitPerimeter=0;" edge="1" parent="_JVXg2aQJ4vH08_t1q8Y-160" source="_JVXg2aQJ4vH08_t1q8Y-21" target="_JVXg2aQJ4vH08_t1q8Y-19">
          <mxGeometry relative="1" as="geometry">
            <mxPoint x="340" y="140" as="targetPoint" />
            <Array as="points">
              <mxPoint x="190" y="110" />
              <mxPoint x="190" y="65" />
              <mxPoint x="105" y="65" />
            </Array>
          </mxGeometry>
        </mxCell>
        <mxCell id="_JVXg2aQJ4vH08_t1q8Y-21" value="play step effect" style="rounded=1;whiteSpace=wrap;html=1;" vertex="1" parent="_JVXg2aQJ4vH08_t1q8Y-160">
          <mxGeometry x="145" y="80" width="100" height="40" as="geometry" />
        </mxCell>
        <mxCell id="_JVXg2aQJ4vH08_t1q8Y-22" value="Wait for done / timeout" style="edgeStyle=orthogonalEdgeStyle;rounded=0;orthogonalLoop=1;jettySize=auto;html=1;" edge="1" parent="_JVXg2aQJ4vH08_t1q8Y-160" source="_JVXg2aQJ4vH08_t1q8Y-19" target="_JVXg2aQJ4vH08_t1q8Y-21">
          <mxGeometry relative="1" as="geometry">
            <Array as="points">
              <mxPoint x="100" y="135" />
              <mxPoint x="190" y="135" />
            </Array>
          </mxGeometry>
        </mxCell>
        <mxCell id="_JVXg2aQJ4vH08_t1q8Y-24" value="move complete" style="rounded=1;whiteSpace=wrap;html=1;" vertex="1" parent="_JVXg2aQJ4vH08_t1q8Y-160">
          <mxGeometry x="20" y="155" width="100" height="40" as="geometry" />
        </mxCell>
        <mxCell id="_JVXg2aQJ4vH08_t1q8Y-25" style="edgeStyle=orthogonalEdgeStyle;rounded=0;orthogonalLoop=1;jettySize=auto;html=1;" edge="1" parent="_JVXg2aQJ4vH08_t1q8Y-160" source="_JVXg2aQJ4vH08_t1q8Y-19" target="_JVXg2aQJ4vH08_t1q8Y-24">
          <mxGeometry relative="1" as="geometry" />
        </mxCell>
        <mxCell id="Ia9hA7gtk5hcU-X4NPmu-3" value="Tile Trap Actions" style="swimlane;startSize=0;labelBackgroundColor=default;dashed=1;" vertex="1" parent="1">
          <mxGeometry x="-840" y="380" width="300" height="360" as="geometry">
            <mxRectangle x="-1010" y="245" width="140" height="30" as="alternateBounds" />
          </mxGeometry>
        </mxCell>
        <mxCell id="_JVXg2aQJ4vH08_t1q8Y-36" value="tile trap action: item trap" style="rounded=1;whiteSpace=wrap;html=1;" vertex="1" parent="Ia9hA7gtk5hcU-X4NPmu-3">
          <mxGeometry x="10" y="20" width="120" height="60" as="geometry" />
        </mxCell>
        <mxCell id="_JVXg2aQJ4vH08_t1q8Y-37" value="player decides trigger effect???" style="rounded=1;whiteSpace=wrap;html=1;" vertex="1" parent="Ia9hA7gtk5hcU-X4NPmu-3">
          <mxGeometry x="10" y="100" width="120" height="60" as="geometry" />
        </mxCell>
        <mxCell id="_JVXg2aQJ4vH08_t1q8Y-38" style="edgeStyle=orthogonalEdgeStyle;rounded=0;orthogonalLoop=1;jettySize=auto;html=1;" edge="1" parent="Ia9hA7gtk5hcU-X4NPmu-3" source="_JVXg2aQJ4vH08_t1q8Y-36" target="_JVXg2aQJ4vH08_t1q8Y-37">
          <mxGeometry relative="1" as="geometry" />
        </mxCell>
        <mxCell id="_JVXg2aQJ4vH08_t1q8Y-44" value="run effect animation" style="rounded=1;whiteSpace=wrap;html=1;" vertex="1" parent="Ia9hA7gtk5hcU-X4NPmu-3">
          <mxGeometry x="10" y="200" width="120" height="60" as="geometry" />
        </mxCell>
        <mxCell id="_JVXg2aQJ4vH08_t1q8Y-45" style="edgeStyle=orthogonalEdgeStyle;rounded=0;orthogonalLoop=1;jettySize=auto;html=1;" edge="1" parent="Ia9hA7gtk5hcU-X4NPmu-3" source="_JVXg2aQJ4vH08_t1q8Y-37" target="_JVXg2aQJ4vH08_t1q8Y-44">
          <mxGeometry relative="1" as="geometry" />
        </mxCell>
        <mxCell id="_JVXg2aQJ4vH08_t1q8Y-46" value="complete w/ next tile link to go to" style="rounded=1;whiteSpace=wrap;html=1;" vertex="1" parent="Ia9hA7gtk5hcU-X4NPmu-3">
          <mxGeometry x="10" y="290" width="120" height="60" as="geometry" />
        </mxCell>
        <mxCell id="_JVXg2aQJ4vH08_t1q8Y-51" style="edgeStyle=orthogonalEdgeStyle;rounded=0;orthogonalLoop=1;jettySize=auto;html=1;entryX=1;entryY=0.5;entryDx=0;entryDy=0;" edge="1" parent="Ia9hA7gtk5hcU-X4NPmu-3" source="_JVXg2aQJ4vH08_t1q8Y-37" target="_JVXg2aQJ4vH08_t1q8Y-46">
          <mxGeometry relative="1" as="geometry">
            <Array as="points">
              <mxPoint x="150" y="130" />
              <mxPoint x="150" y="320" />
            </Array>
          </mxGeometry>
        </mxCell>
        <mxCell id="_JVXg2aQJ4vH08_t1q8Y-47" style="edgeStyle=orthogonalEdgeStyle;rounded=0;orthogonalLoop=1;jettySize=auto;html=1;" edge="1" parent="Ia9hA7gtk5hcU-X4NPmu-3" source="_JVXg2aQJ4vH08_t1q8Y-44" target="_JVXg2aQJ4vH08_t1q8Y-46">
          <mxGeometry relative="1" as="geometry" />
        </mxCell>
        <mxCell id="_JVXg2aQJ4vH08_t1q8Y-88" value="tile trap action: path switchs" style="rounded=1;whiteSpace=wrap;html=1;" vertex="1" parent="Ia9hA7gtk5hcU-X4NPmu-3">
          <mxGeometry x="170" y="20" width="120" height="60" as="geometry" />
        </mxCell>
        <mxCell id="_JVXg2aQJ4vH08_t1q8Y-94" value="complete w/ next tile link to go to" style="rounded=1;whiteSpace=wrap;html=1;" vertex="1" parent="Ia9hA7gtk5hcU-X4NPmu-3">
          <mxGeometry x="170" y="280" width="120" height="60" as="geometry" />
        </mxCell>
        <mxCell id="_JVXg2aQJ4vH08_t1q8Y-96" value="show switch" style="rounded=1;whiteSpace=wrap;html=1;" vertex="1" parent="Ia9hA7gtk5hcU-X4NPmu-3">
          <mxGeometry x="170" y="110" width="120" height="60" as="geometry" />
        </mxCell>
        <mxCell id="_JVXg2aQJ4vH08_t1q8Y-98" style="edgeStyle=orthogonalEdgeStyle;rounded=0;orthogonalLoop=1;jettySize=auto;html=1;" edge="1" parent="Ia9hA7gtk5hcU-X4NPmu-3" source="_JVXg2aQJ4vH08_t1q8Y-88" target="_JVXg2aQJ4vH08_t1q8Y-96">
          <mxGeometry relative="1" as="geometry" />
        </mxCell>
        <mxCell id="_JVXg2aQJ4vH08_t1q8Y-100" value="" style="edgeStyle=orthogonalEdgeStyle;rounded=0;orthogonalLoop=1;jettySize=auto;html=1;" edge="1" parent="Ia9hA7gtk5hcU-X4NPmu-3" source="_JVXg2aQJ4vH08_t1q8Y-97" target="_JVXg2aQJ4vH08_t1q8Y-94">
          <mxGeometry relative="1" as="geometry" />
        </mxCell>
        <mxCell id="_JVXg2aQJ4vH08_t1q8Y-97" value="wait for player choice" style="rounded=1;whiteSpace=wrap;html=1;" vertex="1" parent="Ia9hA7gtk5hcU-X4NPmu-3">
          <mxGeometry x="170" y="200" width="120" height="60" as="geometry" />
        </mxCell>
        <mxCell id="_JVXg2aQJ4vH08_t1q8Y-92" style="edgeStyle=orthogonalEdgeStyle;rounded=0;orthogonalLoop=1;jettySize=auto;html=1;exitX=0.5;exitY=1;exitDx=0;exitDy=0;" edge="1" parent="Ia9hA7gtk5hcU-X4NPmu-3" source="_JVXg2aQJ4vH08_t1q8Y-97" target="_JVXg2aQJ4vH08_t1q8Y-94">
          <mxGeometry relative="1" as="geometry">
            <mxPoint x="230.0526315789475" y="420" as="sourcePoint" />
          </mxGeometry>
        </mxCell>
        <mxCell id="_JVXg2aQJ4vH08_t1q8Y-99" style="edgeStyle=orthogonalEdgeStyle;rounded=0;orthogonalLoop=1;jettySize=auto;html=1;" edge="1" parent="Ia9hA7gtk5hcU-X4NPmu-3" source="_JVXg2aQJ4vH08_t1q8Y-96" target="_JVXg2aQJ4vH08_t1q8Y-97">
          <mxGeometry relative="1" as="geometry" />
        </mxCell>
        <mxCell id="Ia9hA7gtk5hcU-X4NPmu-7" style="edgeStyle=orthogonalEdgeStyle;rounded=0;orthogonalLoop=1;jettySize=auto;html=1;entryX=1;entryY=0.5;entryDx=0;entryDy=0;dashed=1;" edge="1" parent="1" source="_JVXg2aQJ4vH08_t1q8Y-31" target="Ia9hA7gtk5hcU-X4NPmu-3">
          <mxGeometry relative="1" as="geometry">
            <Array as="points">
              <mxPoint x="-510" y="765" />
              <mxPoint x="-510" y="560" />
            </Array>
          </mxGeometry>
        </mxCell>
        <mxCell id="Ia9hA7gtk5hcU-X4NPmu-9" value="Tile effects" style="swimlane;startSize=0;dashed=1;labelBackgroundColor=default;" vertex="1" parent="1">
          <mxGeometry x="-840" y="760" width="300" height="320" as="geometry">
            <mxRectangle x="-1010" y="620" width="100" height="30" as="alternateBounds" />
          </mxGeometry>
        </mxCell>
        <mxCell id="_JVXg2aQJ4vH08_t1q8Y-71" value="Tile effect: Player owned tile" style="rounded=1;whiteSpace=wrap;html=1;" vertex="1" parent="Ia9hA7gtk5hcU-X4NPmu-9">
          <mxGeometry x="20" y="10" width="120" height="60" as="geometry" />
        </mxCell>
        <mxCell id="_JVXg2aQJ4vH08_t1q8Y-72" value="Animation on player fined" style="rounded=1;whiteSpace=wrap;html=1;" vertex="1" parent="Ia9hA7gtk5hcU-X4NPmu-9">
          <mxGeometry x="20" y="90" width="120" height="60" as="geometry" />
        </mxCell>
        <mxCell id="_JVXg2aQJ4vH08_t1q8Y-73" style="edgeStyle=orthogonalEdgeStyle;rounded=0;orthogonalLoop=1;jettySize=auto;html=1;" edge="1" parent="Ia9hA7gtk5hcU-X4NPmu-9" source="_JVXg2aQJ4vH08_t1q8Y-71" target="_JVXg2aQJ4vH08_t1q8Y-72">
          <mxGeometry relative="1" as="geometry" />
        </mxCell>
        <mxCell id="_JVXg2aQJ4vH08_t1q8Y-74" value="Update value" style="rounded=1;whiteSpace=wrap;html=1;" vertex="1" parent="Ia9hA7gtk5hcU-X4NPmu-9">
          <mxGeometry x="20" y="170" width="120" height="60" as="geometry" />
        </mxCell>
        <mxCell id="_JVXg2aQJ4vH08_t1q8Y-75" style="edgeStyle=orthogonalEdgeStyle;rounded=0;orthogonalLoop=1;jettySize=auto;html=1;" edge="1" parent="Ia9hA7gtk5hcU-X4NPmu-9" source="_JVXg2aQJ4vH08_t1q8Y-72" target="_JVXg2aQJ4vH08_t1q8Y-74">
          <mxGeometry relative="1" as="geometry" />
        </mxCell>
        <mxCell id="_JVXg2aQJ4vH08_t1q8Y-76" value="complete" style="rounded=1;whiteSpace=wrap;html=1;" vertex="1" parent="Ia9hA7gtk5hcU-X4NPmu-9">
          <mxGeometry x="20" y="250" width="120" height="60" as="geometry" />
        </mxCell>
        <mxCell id="_JVXg2aQJ4vH08_t1q8Y-77" style="edgeStyle=orthogonalEdgeStyle;rounded=0;orthogonalLoop=1;jettySize=auto;html=1;" edge="1" parent="Ia9hA7gtk5hcU-X4NPmu-9" source="_JVXg2aQJ4vH08_t1q8Y-74" target="_JVXg2aQJ4vH08_t1q8Y-76">
          <mxGeometry relative="1" as="geometry" />
        </mxCell>
        <mxCell id="_JVXg2aQJ4vH08_t1q8Y-78" value="Tile effect: Player draw card" style="rounded=1;whiteSpace=wrap;html=1;" vertex="1" parent="Ia9hA7gtk5hcU-X4NPmu-9">
          <mxGeometry x="160" y="10" width="120" height="60" as="geometry" />
        </mxCell>
        <mxCell id="_JVXg2aQJ4vH08_t1q8Y-79" value="Animation on card stacks" style="rounded=1;whiteSpace=wrap;html=1;" vertex="1" parent="Ia9hA7gtk5hcU-X4NPmu-9">
          <mxGeometry x="160" y="90" width="120" height="60" as="geometry" />
        </mxCell>
        <mxCell id="_JVXg2aQJ4vH08_t1q8Y-80" style="edgeStyle=orthogonalEdgeStyle;rounded=0;orthogonalLoop=1;jettySize=auto;html=1;" edge="1" parent="Ia9hA7gtk5hcU-X4NPmu-9" source="_JVXg2aQJ4vH08_t1q8Y-78" target="_JVXg2aQJ4vH08_t1q8Y-79">
          <mxGeometry relative="1" as="geometry" />
        </mxCell>
        <mxCell id="_JVXg2aQJ4vH08_t1q8Y-81" value="Wait for player draw card" style="rounded=1;whiteSpace=wrap;html=1;" vertex="1" parent="Ia9hA7gtk5hcU-X4NPmu-9">
          <mxGeometry x="160" y="170" width="120" height="60" as="geometry" />
        </mxCell>
        <mxCell id="_JVXg2aQJ4vH08_t1q8Y-82" style="edgeStyle=orthogonalEdgeStyle;rounded=0;orthogonalLoop=1;jettySize=auto;html=1;" edge="1" parent="Ia9hA7gtk5hcU-X4NPmu-9" source="_JVXg2aQJ4vH08_t1q8Y-79" target="_JVXg2aQJ4vH08_t1q8Y-81">
          <mxGeometry relative="1" as="geometry" />
        </mxCell>
        <mxCell id="_JVXg2aQJ4vH08_t1q8Y-83" value="complete" style="rounded=1;whiteSpace=wrap;html=1;" vertex="1" parent="Ia9hA7gtk5hcU-X4NPmu-9">
          <mxGeometry x="160" y="250" width="120" height="60" as="geometry" />
        </mxCell>
        <mxCell id="_JVXg2aQJ4vH08_t1q8Y-84" style="edgeStyle=orthogonalEdgeStyle;rounded=0;orthogonalLoop=1;jettySize=auto;html=1;" edge="1" parent="Ia9hA7gtk5hcU-X4NPmu-9" source="_JVXg2aQJ4vH08_t1q8Y-81" target="_JVXg2aQJ4vH08_t1q8Y-83">
          <mxGeometry relative="1" as="geometry" />
        </mxCell>
        <mxCell id="Ia9hA7gtk5hcU-X4NPmu-10" style="edgeStyle=orthogonalEdgeStyle;rounded=0;orthogonalLoop=1;jettySize=auto;html=1;entryX=1;entryY=0.5;entryDx=0;entryDy=0;dashed=1;" edge="1" parent="1" source="_JVXg2aQJ4vH08_t1q8Y-65" target="Ia9hA7gtk5hcU-X4NPmu-9">
          <mxGeometry relative="1" as="geometry">
            <Array as="points">
              <mxPoint x="-300" y="1090" />
              <mxPoint x="-510" y="1090" />
              <mxPoint x="-510" y="920" />
            </Array>
          </mxGeometry>
        </mxCell>
        <mxCell id="Ia9hA7gtk5hcU-X4NPmu-15" style="edgeStyle=orthogonalEdgeStyle;rounded=0;orthogonalLoop=1;jettySize=auto;html=1;" edge="1" parent="1" source="Ia9hA7gtk5hcU-X4NPmu-11" target="_JVXg2aQJ4vH08_t1q8Y-104">
          <mxGeometry relative="1" as="geometry">
            <Array as="points">
              <mxPoint x="210" y="805" />
              <mxPoint x="210" y="805" />
            </Array>
          </mxGeometry>
        </mxCell>
        <mxCell id="Ia9hA7gtk5hcU-X4NPmu-11" value="End Turn" style="swimlane;startSize=0;labelBackgroundColor=default;" vertex="1" parent="1">
          <mxGeometry x="220" y="530" width="470" height="540" as="geometry" />
        </mxCell>
        <mxCell id="_JVXg2aQJ4vH08_t1q8Y-125" value="On player end turn" style="rounded=1;whiteSpace=wrap;html=1;arcSize=50;" vertex="1" parent="Ia9hA7gtk5hcU-X4NPmu-11">
          <mxGeometry x="100" y="20" width="120" height="60" as="geometry" />
        </mxCell>
        <mxCell id="_JVXg2aQJ4vH08_t1q8Y-126" value="End round" style="rounded=1;whiteSpace=wrap;html=1;" vertex="1" parent="Ia9hA7gtk5hcU-X4NPmu-11">
          <mxGeometry x="180" y="120" width="120" height="60" as="geometry" />
        </mxCell>
        <mxCell id="_JVXg2aQJ4vH08_t1q8Y-127" style="edgeStyle=orthogonalEdgeStyle;rounded=0;orthogonalLoop=1;jettySize=auto;html=1;" edge="1" parent="Ia9hA7gtk5hcU-X4NPmu-11" source="_JVXg2aQJ4vH08_t1q8Y-125" target="_JVXg2aQJ4vH08_t1q8Y-126">
          <mxGeometry relative="1" as="geometry" />
        </mxCell>
        <mxCell id="_JVXg2aQJ4vH08_t1q8Y-128" value="End turn" style="rounded=1;whiteSpace=wrap;html=1;" vertex="1" parent="Ia9hA7gtk5hcU-X4NPmu-11">
          <mxGeometry x="20" y="120" width="120" height="60" as="geometry" />
        </mxCell>
        <mxCell id="_JVXg2aQJ4vH08_t1q8Y-129" style="edgeStyle=orthogonalEdgeStyle;rounded=0;orthogonalLoop=1;jettySize=auto;html=1;" edge="1" parent="Ia9hA7gtk5hcU-X4NPmu-11" source="_JVXg2aQJ4vH08_t1q8Y-125" target="_JVXg2aQJ4vH08_t1q8Y-128">
          <mxGeometry relative="1" as="geometry" />
        </mxCell>
        <mxCell id="_JVXg2aQJ4vH08_t1q8Y-130" value="switch active player" style="rounded=1;whiteSpace=wrap;html=1;" vertex="1" parent="Ia9hA7gtk5hcU-X4NPmu-11">
          <mxGeometry x="20" y="280" width="120" height="60" as="geometry" />
        </mxCell>
        <mxCell id="_JVXg2aQJ4vH08_t1q8Y-131" style="edgeStyle=orthogonalEdgeStyle;rounded=0;orthogonalLoop=1;jettySize=auto;html=1;" edge="1" parent="Ia9hA7gtk5hcU-X4NPmu-11" source="_JVXg2aQJ4vH08_t1q8Y-128" target="_JVXg2aQJ4vH08_t1q8Y-130">
          <mxGeometry relative="1" as="geometry" />
        </mxCell>
        <mxCell id="_JVXg2aQJ4vH08_t1q8Y-132" value="check if anyone is bankrupt" style="rounded=1;whiteSpace=wrap;html=1;" vertex="1" parent="Ia9hA7gtk5hcU-X4NPmu-11">
          <mxGeometry x="180" y="200" width="120" height="60" as="geometry" />
        </mxCell>
        <mxCell id="_JVXg2aQJ4vH08_t1q8Y-135" style="edgeStyle=orthogonalEdgeStyle;rounded=0;orthogonalLoop=1;jettySize=auto;html=1;" edge="1" parent="Ia9hA7gtk5hcU-X4NPmu-11" source="_JVXg2aQJ4vH08_t1q8Y-126" target="_JVXg2aQJ4vH08_t1q8Y-132">
          <mxGeometry relative="1" as="geometry" />
        </mxCell>
        <mxCell id="_JVXg2aQJ4vH08_t1q8Y-133" value="Run emergency liquidation, trigger global effects" style="rounded=1;whiteSpace=wrap;html=1;" vertex="1" parent="Ia9hA7gtk5hcU-X4NPmu-11">
          <mxGeometry x="330" y="200" width="120" height="60" as="geometry" />
        </mxCell>
        <mxCell id="_JVXg2aQJ4vH08_t1q8Y-134" style="edgeStyle=orthogonalEdgeStyle;rounded=0;orthogonalLoop=1;jettySize=auto;html=1;" edge="1" parent="Ia9hA7gtk5hcU-X4NPmu-11" source="_JVXg2aQJ4vH08_t1q8Y-132" target="_JVXg2aQJ4vH08_t1q8Y-133">
          <mxGeometry relative="1" as="geometry" />
        </mxCell>
        <mxCell id="_JVXg2aQJ4vH08_t1q8Y-139" value="No" style="edgeStyle=orthogonalEdgeStyle;rounded=0;orthogonalLoop=1;jettySize=auto;html=1;" edge="1" parent="Ia9hA7gtk5hcU-X4NPmu-11" source="_JVXg2aQJ4vH08_t1q8Y-136" target="_JVXg2aQJ4vH08_t1q8Y-130">
          <mxGeometry relative="1" as="geometry" />
        </mxCell>
        <mxCell id="_JVXg2aQJ4vH08_t1q8Y-136" value="check if game ends this round" style="rounded=1;whiteSpace=wrap;html=1;" vertex="1" parent="Ia9hA7gtk5hcU-X4NPmu-11">
          <mxGeometry x="180" y="280" width="120" height="60" as="geometry" />
        </mxCell>
        <mxCell id="_JVXg2aQJ4vH08_t1q8Y-138" style="edgeStyle=orthogonalEdgeStyle;rounded=0;orthogonalLoop=1;jettySize=auto;html=1;" edge="1" parent="Ia9hA7gtk5hcU-X4NPmu-11" source="_JVXg2aQJ4vH08_t1q8Y-132" target="_JVXg2aQJ4vH08_t1q8Y-136">
          <mxGeometry relative="1" as="geometry" />
        </mxCell>
        <mxCell id="_JVXg2aQJ4vH08_t1q8Y-137" style="edgeStyle=orthogonalEdgeStyle;rounded=0;orthogonalLoop=1;jettySize=auto;html=1;entryX=1;entryY=0.5;entryDx=0;entryDy=0;" edge="1" parent="Ia9hA7gtk5hcU-X4NPmu-11" source="_JVXg2aQJ4vH08_t1q8Y-133" target="_JVXg2aQJ4vH08_t1q8Y-136">
          <mxGeometry relative="1" as="geometry">
            <Array as="points">
              <mxPoint x="390" y="310" />
            </Array>
          </mxGeometry>
        </mxCell>
        <mxCell id="_JVXg2aQJ4vH08_t1q8Y-140" value="Display end game" style="rounded=1;whiteSpace=wrap;html=1;" vertex="1" parent="Ia9hA7gtk5hcU-X4NPmu-11">
          <mxGeometry x="180" y="370" width="120" height="60" as="geometry" />
        </mxCell>
        <mxCell id="_JVXg2aQJ4vH08_t1q8Y-141" value="Yes" style="edgeStyle=orthogonalEdgeStyle;rounded=0;orthogonalLoop=1;jettySize=auto;html=1;" edge="1" parent="Ia9hA7gtk5hcU-X4NPmu-11" source="_JVXg2aQJ4vH08_t1q8Y-136" target="_JVXg2aQJ4vH08_t1q8Y-140">
          <mxGeometry relative="1" as="geometry" />
        </mxCell>
        <mxCell id="_JVXg2aQJ4vH08_t1q8Y-142" value="Close room" style="rounded=1;whiteSpace=wrap;html=1;arcSize=0;" vertex="1" parent="Ia9hA7gtk5hcU-X4NPmu-11">
          <mxGeometry x="180" y="460" width="120" height="60" as="geometry" />
        </mxCell>
        <mxCell id="_JVXg2aQJ4vH08_t1q8Y-143" style="edgeStyle=orthogonalEdgeStyle;rounded=0;orthogonalLoop=1;jettySize=auto;html=1;" edge="1" parent="Ia9hA7gtk5hcU-X4NPmu-11" source="_JVXg2aQJ4vH08_t1q8Y-140" target="_JVXg2aQJ4vH08_t1q8Y-142">
          <mxGeometry relative="1" as="geometry" />
        </mxCell>
        <mxCell id="_JVXg2aQJ4vH08_t1q8Y-144" value="Continue" style="rounded=1;whiteSpace=wrap;html=1;arcSize=50;" vertex="1" parent="Ia9hA7gtk5hcU-X4NPmu-11">
          <mxGeometry x="20" y="370" width="120" height="60" as="geometry" />
        </mxCell>
        <mxCell id="_JVXg2aQJ4vH08_t1q8Y-145" style="edgeStyle=orthogonalEdgeStyle;rounded=0;orthogonalLoop=1;jettySize=auto;html=1;" edge="1" parent="Ia9hA7gtk5hcU-X4NPmu-11" source="_JVXg2aQJ4vH08_t1q8Y-130" target="_JVXg2aQJ4vH08_t1q8Y-144">
          <mxGeometry relative="1" as="geometry" />
        </mxCell>
      </root>
    </mxGraphModel>
  </diagram>
</mxfile>
